<?xml version="1.0" encoding="UTF-8" standalone="no"?> <svg id="Layer_1" data-name="Layer 1" xmlns="http://www.w3.org/2000/svg" viewBox="0 0 128 128"><defs><style>.cls-1{fill:#2d3e50;}.cls-2{fill:#1d75b8;}</style></defs><title>n</title><path class="cls-1" d="M96.89233,52.15708v64.70336H12.23612V11.13957H78.02668a27.69094,27.69094,0,0,1,9.70375-9.83041H7.31739A4.91539,4.91539,0,0,0,2.40219,6.22435v115.5513a4.91539,4.91539,0,0,0,4.91519,4.91519h94.49014a4.91314,4.91314,0,0,0,4.91522-4.91519V52.19225a27.69723,27.69723,0,0,1-9.83041-.03518Z"/><path class="cls-2" d="M54.56313,54.301a9.71729,9.71729,0,0,0,9.53468-7.8587l1.48276-7.64307A10.2318,10.2318,0,0,0,55.44374,27.18868H53.68242A10.23183,10.23183,0,0,0,43.54557,38.79927l1.48282,7.64307A9.71728,9.71728,0,0,0,54.56313,54.301Z"/><path class="cls-2" d="M74.84869,60.9441,64.49643,57.26758l-9.93329,9.93327L44.6298,57.26758,34.27751,60.9441a2.88566,2.88566,0,0,0-1.85693,2.11952L28.88384,79.70837H80.24238L76.70556,63.06362A2.88554,2.88554,0,0,0,74.84869,60.9441Z"/><path class="cls-2" d="M25.07356,97.696a3.11877,3.11877,0,0,0,3.11337,3.11687H80.93576a3.11686,3.11686,0,0,0,0-6.23371H28.18693A3.11877,3.11877,0,0,0,25.07356,97.696Z"/><path class="cls-2" d="M101.90221,1.30916a23.695,23.695,0,1,0,23.6956,23.69558A23.69978,23.69978,0,0,0,101.90221,1.30916Zm11.55564,20.03031L101.166,33.63134a3.48839,3.48839,0,0,1-4.95031,0l-5.95607-5.956a3.40716,3.40716,0,0,1-1.02288-2.4623,3.49608,3.49608,0,0,1,5.97321-2.4623l3.49375,3.49254,9.83939-9.83936a3.49278,3.49278,0,0,1,4.95153,0,3.40713,3.40713,0,0,1,1.0229,2.46228A3.30342,3.30342,0,0,1,113.45785,21.33947Z"/></svg>